<?xml version="1.0" encoding="UTF-8" standalone="no"?><!DOCTYPE svg PUBLIC "-//W3C//DTD SVG 1.1//EN" "http://www.w3.org/Graphics/SVG/1.1/DTD/svg11.dtd"><svg width="100%" height="100%" viewBox="0 0 512 512" version="1.1" xmlns="http://www.w3.org/2000/svg" xmlns:xlink="http://www.w3.org/1999/xlink" xml:space="preserve" xmlns:serif="http://www.serif.com/" style="fill-rule:evenodd;clip-rule:evenodd;stroke-linejoin:round;stroke-miterlimit:2;"><path d="M355.899,301.58c12.585,-12.586 12.6,-32.978 0.044,-45.583c-18.155,-18.217 -30.439,-30.535 -30.439,-30.535c-12.609,-12.61 -33.06,-12.61 -45.674,-0c-0,-0 -16.98,16.979 -22.835,22.839c0.286,0.287 24.102,24.103 53.283,53.279c12.595,12.599 33.021,12.599 45.621,-0Z" style="fill:#565656;fill-opacity:0.5;fill-rule:nonzero;"/><path d="M265.705,257.012c-5.413,-5.414 -8.603,-8.609 -8.71,-8.711c5.855,-5.86 22.835,-22.839 22.835,-22.839c6.307,-6.303 14.571,-9.459 22.839,-9.459c8.264,0 16.533,3.156 22.835,9.459c0,-0 2.899,2.908 7.953,7.977c-6.2,-5.817 -14.138,-8.725 -22.077,-8.725c-8.264,-0 -16.533,3.156 -22.84,9.458l-22.835,22.84Z" style="fill:#565656;fill-opacity:0.75;fill-rule:nonzero;"/><path d="M15.541,256.39c0,-0.152 0,-0.304 0.001,-0.456l0.043,0.456l-0.044,0Zm0.001,-0.667c0.361,-132.499 108.249,-240.174 240.812,-240.174c132.567,-0 240.46,107.675 240.822,240.174c-0.114,-24.758 -20.22,-44.793 -44.999,-44.793c-24.855,-0 -45.005,20.149 -45.005,45.004c-0.247,-82.959 -67.807,-150.371 -150.818,-150.371c-83.006,-0 -150.561,67.412 -150.808,150.371c-0,-24.855 -20.15,-45.004 -45.005,-45.004c-24.784,-0 -44.885,20.035 -44.999,44.793Zm481.634,0.211c0,0.152 0,0.304 0,0.456l-0.043,0l0.043,-0.456Zm-391.63,0c-0.001,0.152 -0,0.304 -0,0.456l-0.049,0l0.049,-0.456Zm301.626,0.456c-0,-0.152 0,-0.304 -0,-0.456l0.048,0.456l-0.048,0Z" style="fill:#212121;"/><path d="M497.048,255.735c-0,-24.855 -20.15,-45.005 -45,-45.005c-24.855,0 -45.004,20.15 -45.004,45.005l0.048,0.456l-0.048,0c-0,83.168 -67.655,150.828 -150.818,150.828c-83.159,0 -150.809,-67.66 -150.809,-150.828l-0.048,0l0.048,-0.456c0,-24.855 -20.15,-45.005 -45.004,-45.005c-24.855,0 -45,20.15 -45,45.005l0.044,0.456l-0.044,0c-0,132.805 108.027,240.842 240.813,240.842c132.79,0 240.822,-108.037 240.822,-240.842l-0.044,0l0.044,-0.456Z" style="fill:#565656;fill-opacity:0.75;fill-rule:nonzero;"/><path d="M158.12,301.546c12.599,12.604 33.026,12.604 45.626,-0l76.084,-76.084c12.614,-12.61 33.065,-12.61 45.674,-0l-23.218,-23.219c-25.015,-25.015 -65.572,-25.015 -90.582,0l-53.633,53.633c-12.6,12.595 -12.6,33.021 0,45.621l0.049,0.049Z" style="fill:#222;fill-rule:nonzero;"/><path d="M265.705,257.012l-8.71,-8.711c0.107,0.102 3.297,3.297 8.71,8.711Zm68.51,-22.84c-0.248,-0.247 -0.5,-0.49 -0.758,-0.733c-5.054,-5.069 -7.953,-7.977 -7.953,-7.977l8.711,8.71Z" style="fill:#bbbdc0;fill-rule:nonzero;"/></svg>